<svg width="56" height="56" viewBox="0 0 56 56" xmlns="http://www.w3.org/2000/svg"><title>音量</title><g fill="none" fill-rule="evenodd"><rect fill-opacity=".535" fill="#646BA8" width="56" height="56" rx="28"/><g fill="#FFF" fill-rule="nonzero"><path d="M20.248 32.94l5.037 5.42c.102.11.246.172.397.172a.53.53 0 0 0 .537-.525V18.305a.52.52 0 0 0-.176-.388.545.545 0 0 0-.758.035l-5.037 5.421a3.792 3.792 0 0 1-2.778 1.203h-1.645c-.593 0-1.073.47-1.073 1.05v5.061c0 .58.48 1.05 1.073 1.05h1.645c1.058 0 2.067.437 2.778 1.202zm-8.178-2.253v-5.062c0-2.029 1.681-3.674 3.755-3.674h1.645c.303 0 .59-.124.794-.343l5.037-5.421a3.268 3.268 0 0 1 4.546-.212 3.119 3.119 0 0 1 1.053 2.33v19.702c0 1.74-1.44 3.15-3.218 3.15a3.25 3.25 0 0 1-2.38-1.031l-5.038-5.422a1.083 1.083 0 0 0-.794-.343h-1.645c-2.074 0-3.755-1.645-3.755-3.674z" opacity=".601"/><path d="M42.95 23.05c.39.39.338 1.077-.118 1.532L39.414 28l3.418 3.418c.425.425.5 1.05.19 1.45l-.072.082c-.39.39-1.077.338-1.532-.118L38 29.414l-3.418 3.418c-.425.425-1.05.5-1.45.19l-.082-.072c-.39-.39-.338-1.077.118-1.532L36.586 28l-3.418-3.418c-.425-.425-.5-1.05-.19-1.45l.072-.082c.39-.39 1.077-.338 1.532.118L38 26.586l3.418-3.418c.425-.425 1.05-.5 1.45-.19z" opacity=".6"/></g></g></svg>