<svg width="56" height="56" viewBox="0 0 56 56" xmlns="http://www.w3.org/2000/svg"><title>音量</title><g fill="none" fill-rule="evenodd"><rect fill-opacity=".535" fill="#646BA8" width="56" height="56" rx="28"/><path d="M20.248 32.94l5.037 5.42c.102.11.246.172.397.172a.53.53 0 0 0 .537-.525V18.305a.52.52 0 0 0-.176-.388.545.545 0 0 0-.758.035l-5.037 5.421a3.792 3.792 0 0 1-2.778 1.203h-1.645c-.593 0-1.073.47-1.073 1.05v5.061c0 .58.48 1.05 1.073 1.05h1.645c1.058 0 2.067.437 2.778 1.202zm-8.178-2.253v-5.062c0-2.029 1.681-3.674 3.755-3.674h1.645c.303 0 .59-.124.794-.343l5.037-5.421a3.268 3.268 0 0 1 4.546-.212 3.119 3.119 0 0 1 1.053 2.33v19.702c0 1.74-1.44 3.15-3.218 3.15a3.25 3.25 0 0 1-2.38-1.031l-5.038-5.422a1.083 1.083 0 0 0-.794-.343h-1.645c-2.074 0-3.755-1.645-3.755-3.674zm19.041-7.752a1.295 1.295 0 0 1-.385-1.816 1.359 1.359 0 0 1 1.856-.378c2.533 1.626 4.092 4.39 4.092 7.41 0 3.02-1.56 5.783-4.092 7.41-.619.397-1.45.228-1.856-.378a1.295 1.295 0 0 1 .385-1.817c1.785-1.146 2.881-3.088 2.881-5.215s-1.096-4.07-2.88-5.216zm3.115-4.504a1.294 1.294 0 0 1-.325-1.828 1.36 1.36 0 0 1 1.868-.318c3.92 2.697 6.301 7.087 6.301 11.866s-2.382 9.168-6.301 11.866a1.36 1.36 0 0 1-1.868-.319 1.294 1.294 0 0 1 .325-1.828c3.213-2.21 5.163-5.803 5.163-9.72 0-3.915-1.95-7.508-5.163-9.719z" fill="#FFF" fill-rule="nonzero" opacity=".601"/></g></svg>